# Blender 5.0.1
# www.blender.org
mtllib squircle_scaled.mtl
o squircle
v -0.999654 -0.499860 -0.124970
v 0.999718 0.499942 -0.124966
v 0.999718 -0.499860 -0.124970
v 0.987152 -0.611138 -0.124970
v 0.791786 -0.490374 -0.124970
v 0.762080 -0.575150 -0.124970
v 0.950592 -0.716706 -0.124970
v -0.791718 -0.490374 -0.124970
v -0.762016 -0.575150 -0.124970
v -0.987088 -0.611138 -0.124970
v -0.950528 -0.716706 -0.124970
v -0.715174 -0.651126 -0.124970
v -0.891118 -0.811534 -0.124970
v -0.651194 -0.714650 -0.124970
v -0.811142 -0.890596 -0.124970
v -0.716316 -0.950234 -0.124970
v -0.574646 -0.762406 -0.124970
v 0.891182 -0.811534 -0.124970
v 0.811206 -0.890596 -0.124970
v 0.714094 -0.651126 -0.124970
v 0.651258 -0.714650 -0.124970
v 0.716378 -0.950234 -0.124970
v 0.574708 -0.762406 -0.124970
v 0.611268 -0.987136 -0.124970
v 0.490164 -0.792110 -0.124970
v 0.500446 -0.999702 -0.124970
v -0.500384 -0.999702 -0.124970
v -0.611206 -0.987136 -0.124970
v -0.490102 -0.792110 -0.124970
v 0.791786 0.490346 -0.124966
v 0.762080 0.575120 -0.124966
v 0.987152 0.611106 -0.124966
v 0.950592 0.716790 -0.124966
v 0.714094 0.651206 -0.124966
v 0.891182 0.811502 -0.124966
v 0.651258 0.714618 -0.124966
v 0.811206 0.890676 -0.124966
v 0.716378 0.950202 -0.124966
v 0.574708 0.762374 -0.124966
v 0.611268 0.987218 -0.124966
v 0.490164 0.792078 -0.124966
v 0.500446 0.999674 -0.124966
v -0.500384 0.999674 -0.124966
v -0.490102 0.792078 -0.124966
v -0.611206 0.987218 -0.124966
v -0.574646 0.762374 -0.124966
v -0.716316 0.950202 -0.124966
v -0.651194 0.714618 -0.124966
v -0.811142 0.890676 -0.124966
v -0.999654 0.499942 -0.124966
v -0.791718 0.490346 -0.124966
v -0.715174 0.651206 -0.124966
v -0.891118 0.811502 -0.124966
v -0.987088 0.611106 -0.124966
v -0.950528 0.716790 -0.124966
v -0.762016 0.575120 -0.124966
v -0.400986 0.999674 -0.124966
v 0.401050 0.999674 -0.124966
v -0.999654 0.401116 -0.124966
v 0.999718 0.401116 -0.124966
v 0.999718 -0.401148 -0.124970
v -0.999654 -0.401148 -0.124970
v -0.400986 -0.999702 -0.124970
v 0.401050 -0.999702 -0.124970
v -0.999654 -0.499860 0.125082
v 0.999718 0.499942 0.125082
v 0.999718 -0.499860 0.125082
v 0.987152 -0.611138 0.125082
v 0.791786 -0.490378 0.125082
v 0.762080 -0.575150 0.125082
v 0.950592 -0.716706 0.125082
v -0.791718 -0.490378 0.125082
v -0.762016 -0.575150 0.125082
v -0.987088 -0.611138 0.125082
v -0.950528 -0.716706 0.125082
v -0.715174 -0.651126 0.125082
v -0.891118 -0.811534 0.125082
v -0.651194 -0.714650 0.125082
v -0.811142 -0.890596 0.125082
v -0.716316 -0.950234 0.125082
v -0.574646 -0.762406 0.125082
v 0.891182 -0.811534 0.125082
v 0.811206 -0.890596 0.125082
v 0.714094 -0.651126 0.125082
v 0.651258 -0.714650 0.125082
v 0.716378 -0.950234 0.125082
v 0.574708 -0.762406 0.125082
v 0.611268 -0.987136 0.125080
v 0.490164 -0.792110 0.125082
v 0.500446 -0.999702 0.125080
v -0.500384 -0.999702 0.125080
v -0.611206 -0.987136 0.125080
v -0.490102 -0.792110 0.125082
v 0.791786 0.490342 0.125082
v 0.762080 0.575120 0.125082
v 0.987152 0.611106 0.125082
v 0.950592 0.716790 0.125082
v 0.714094 0.651206 0.125082
v 0.891182 0.811502 0.125082
v 0.651258 0.714618 0.125082
v 0.811206 0.890676 0.125082
v 0.716378 0.950202 0.125082
v 0.574708 0.762374 0.125082
v 0.611268 0.987218 0.125082
v 0.490164 0.792078 0.125082
v 0.500446 0.999674 0.125082
v -0.500384 0.999674 0.125082
v -0.490102 0.792078 0.125082
v -0.611206 0.987218 0.125082
v -0.574646 0.762374 0.125082
v -0.716316 0.950202 0.125082
v -0.651194 0.714618 0.125082
v -0.811142 0.890676 0.125082
v -0.999654 0.499942 0.125082
v -0.791718 0.490342 0.125082
v -0.715174 0.651206 0.125082
v -0.891118 0.811502 0.125082
v -0.987088 0.611106 0.125082
v -0.950528 0.716790 0.125082
v -0.762016 0.575120 0.125082
v -0.400986 0.999674 0.125082
v 0.401050 0.999674 0.125082
v -0.999654 0.401116 0.125082
v 0.999718 0.401116 0.125082
v 0.999718 -0.401148 0.125082
v -0.999654 -0.401148 0.125082
v -0.400986 -0.999702 0.125080
v 0.401050 -0.999702 0.125080
vn -0.0000 -0.0000 -1.0000
vn -0.0000 -0.0000 1.0000
vn 0.8455 -0.5340 -0.0000
vn -0.0000 1.0000 -0.0000
vn -0.7109 0.7032 -0.0000
vn -0.9937 0.1122 -0.0000
vn -0.9438 0.3307 -0.0000
vn -0.9438 0.3306 -0.0000
vn -0.0000 -1.0000 -0.0000
vn 0.3313 -0.9435 -0.0000
vn 1.0000 -0.0000 -0.0000
vn 0.3315 -0.9435 -0.0000
vn -0.3322 -0.9432 -0.0000
vn -1.0000 -0.0000 -0.0000
vn 0.5324 0.8465 -0.0000
vn -0.5317 -0.8470 -0.0000
vn 0.3313 0.9435 -0.0000
vn 0.8471 0.5314 -0.0000
vn 0.7035 0.7107 -0.0000
vn 0.7046 0.7096 -0.0000
vn -0.3315 -0.9435 -0.0000
vn -0.9449 -0.3272 -0.0000
vn -0.1117 -0.9937 -0.0000
vn 0.5293 0.8484 -0.0000
vn -0.8516 0.5243 -0.0000
vn 0.9937 -0.1123 -0.0000
vn -0.3315 0.9435 -0.0000
vn 0.9450 0.3269 -0.0000
vn -0.7103 -0.7039 -0.0000
vn 0.5293 -0.8484 -0.0000
vn -0.1117 0.9937 -0.0000
vn 0.9937 0.1123 -0.0000
vn 0.7030 -0.7112 -0.0000
vn -0.5293 -0.8484 -0.0000
vn -0.8458 -0.5334 -0.0000
vn 0.5324 -0.8465 -0.0000
vn 0.1127 0.9936 -0.0000
vn -0.8474 -0.5309 -0.0000
vn -0.7030 -0.7112 -0.0000
vn 0.8512 0.5248 -0.0000
vn -0.9937 -0.1122 -0.0000
vn -0.9437 -0.3307 -0.0000
vn 0.9437 -0.3307 -0.0000
vn -0.5317 0.8470 -0.0000
vn -0.3322 0.9432 -0.0000
vn -0.5293 0.8484 -0.0000
vn 0.1127 -0.9936 -0.0000
vn -0.7035 0.7107 -0.0000
vn 0.3315 0.9435 -0.0000
vn 0.9438 0.3307 -0.0000
vn 0.9437 0.3307 -0.0000
vn -0.8471 0.5314 -0.0000
vn -0.8474 0.5309 -0.0000
vn 0.9450 -0.3269 -0.0000
vn -0.9449 0.3272 -0.0000
vn -0.7039 0.7103 -0.0000
vt 0.000000 0.000000
s 1
usemtl Meshpart1Mtl
f 1/1/1 8/1/1 9/1/1
f 3/1/2 5/1/2 6/1/2
f 38/1/2 36/1/2 37/1/2
f 50/1/2 51/1/2 56/1/2
f 36/1/1 35/1/1 33/1/1
f 40/1/2 39/1/2 36/1/2
f 33/1/1 34/1/1 36/1/1
f 2/1/1 30/1/1 31/1/1
f 32/1/1 31/1/1 34/1/1
f 42/1/2 41/1/2 39/1/2
f 4/1/2 6/1/2 20/1/2
f 43/1/1 44/1/1 46/1/1
f 27/1/2 29/1/2 17/1/2
f 26/1/1 25/1/1 23/1/1
f 28/1/2 17/1/2 14/1/2
f 10/1/1 9/1/1 12/1/1
f 24/1/1 23/1/1 21/1/1
f 20/1/2 7/1/2 4/1/2
f 22/1/1 21/1/1 20/1/1
f 14/1/2 16/1/2 28/1/2
f 11/1/1 12/1/1 14/1/1
f 54/1/2 56/1/2 52/1/2
f 45/1/1 46/1/1 48/1/1
f 19/1/1 20/1/1 18/1/1
f 13/1/1 14/1/1 15/1/1
f 48/1/1 47/1/1 45/1/1
f 53/1/1 48/1/1 55/1/1
f 52/1/2 55/1/2 54/1/2
f 57/1/2 41/1/2 58/1/2
f 59/1/1 8/1/1 62/1/1
f 64/1/2 29/1/2 63/1/2
f 60/1/2 5/1/2 61/1/2
f 65/1/2 72/1/2 126/1/2
f 67/1/1 69/1/1 125/1/1
f 102/1/1 100/1/1 104/1/1
f 114/1/1 115/1/1 123/1/1
f 100/1/2 99/1/2 101/1/2
f 104/1/1 103/1/1 106/1/1
f 97/1/2 98/1/2 96/1/2
f 66/1/2 94/1/2 124/1/2
f 96/1/2 95/1/2 66/1/2
f 106/1/1 105/1/1 122/1/1
f 68/1/1 70/1/1 67/1/1
f 107/1/2 108/1/2 121/1/2
f 91/1/1 93/1/1 127/1/1
f 90/1/2 89/1/2 128/1/2
f 92/1/1 81/1/1 91/1/1
f 74/1/2 73/1/2 65/1/2
f 88/1/2 87/1/2 90/1/2
f 84/1/1 71/1/1 82/1/1
f 86/1/2 85/1/2 88/1/2
f 78/1/1 80/1/1 79/1/1
f 75/1/2 76/1/2 74/1/2
f 118/1/1 120/1/1 114/1/1
f 109/1/2 110/1/2 107/1/2
f 83/1/2 84/1/2 86/1/2
f 77/1/2 78/1/2 75/1/2
f 112/1/2 111/1/2 113/1/2
f 112/1/2 117/1/2 119/1/2
f 116/1/1 119/1/1 112/1/1
f 105/1/1 121/1/1 122/1/1
f 72/1/2 123/1/2 126/1/2
f 93/1/1 128/1/1 127/1/1
f 69/1/1 124/1/1 125/1/1
f 6/1/3 84/1/3 20/1/3
f 44/1/4 105/1/4 41/1/4
f 21/1/5 84/1/5 20/1/5
f 4/1/6 67/1/6 3/1/6
f 51/1/7 120/1/8 56/1/7
f 58/1/9 121/1/9 57/1/9
f 22/1/10 88/1/10 24/1/10
f 51/1/11 72/1/11 8/1/11
f 44/1/12 110/1/12 46/1/12
f 38/1/13 104/1/13 40/1/13
f 62/1/14 123/1/14 59/1/14
f 15/1/15 80/1/15 16/1/15
f 37/1/16 102/1/16 38/1/16
f 25/1/9 93/1/9 29/1/9
f 16/1/17 92/1/17 28/1/17
f 43/1/4 121/1/4 57/1/4
f 35/1/18 97/1/18 33/1/18
f 63/1/4 128/1/4 64/1/4
f 37/1/19 99/1/19 35/1/19
f 30/1/11 69/1/11 5/1/11
f 12/1/20 78/1/20 14/1/20
f 29/1/21 81/1/21 17/1/21
f 61/1/14 124/1/14 60/1/14
f 11/1/22 74/1/22 10/1/22
f 40/1/23 106/1/23 42/1/23
f 27/1/4 127/1/4 63/1/4
f 39/1/24 100/1/24 36/1/24
f 56/1/25 116/1/25 52/1/25
f 54/1/26 114/1/26 50/1/26
f 25/1/27 87/1/27 23/1/27
f 33/1/28 96/1/28 32/1/28
f 34/1/29 100/1/29 36/1/29
f 46/1/30 112/1/30 48/1/30
f 26/1/9 128/1/9 64/1/9
f 45/1/31 107/1/31 43/1/31
f 32/1/32 66/1/32 2/1/32
f 18/1/33 83/1/33 19/1/33
f 17/1/34 78/1/34 14/1/34
f 31/1/35 98/1/35 34/1/35
f 19/1/36 86/1/36 22/1/36
f 28/1/37 91/1/37 27/1/37
f 13/1/38 75/1/38 11/1/38
f 2/1/11 124/1/11 60/1/11
f 3/1/14 125/1/14 61/1/14
f 15/1/39 77/1/39 13/1/39
f 9/1/40 76/1/40 12/1/40
f 10/1/41 65/1/41 1/1/41
f 30/1/42 95/1/42 31/1/42
f 5/1/43 70/1/43 6/1/43
f 49/1/44 111/1/44 47/1/44
f 47/1/45 109/1/45 45/1/45
f 23/1/46 85/1/46 21/1/46
f 42/1/9 122/1/9 58/1/9
f 1/1/14 126/1/14 62/1/14
f 24/1/47 90/1/47 26/1/47
f 53/1/48 113/1/48 49/1/48
f 41/1/49 103/1/49 39/1/49
f 8/1/50 73/1/51 9/1/50
f 55/1/52 117/1/52 53/1/52
f 18/1/53 71/1/53 7/1/53
f 55/1/54 118/1/54 54/1/54
f 7/1/55 68/1/55 4/1/55
f 50/1/11 123/1/11 59/1/11
f 52/1/56 112/1/56 48/1/56
f 1/1/1 62/1/1 8/1/1
f 3/1/2 61/1/2 5/1/2
f 38/1/2 40/1/2 36/1/2
f 50/1/2 59/1/2 51/1/2
f 36/1/1 37/1/1 35/1/1
f 40/1/2 42/1/2 39/1/2
f 33/1/1 32/1/1 34/1/1
f 2/1/1 60/1/1 30/1/1
f 32/1/1 2/1/1 31/1/1
f 42/1/2 58/1/2 41/1/2
f 4/1/2 3/1/2 6/1/2
f 43/1/1 57/1/1 44/1/1
f 27/1/2 63/1/2 29/1/2
f 26/1/1 64/1/1 25/1/1
f 28/1/2 27/1/2 17/1/2
f 10/1/1 1/1/1 9/1/1
f 24/1/1 26/1/1 23/1/1
f 20/1/2 18/1/2 7/1/2
f 22/1/1 24/1/1 21/1/1
f 14/1/2 15/1/2 16/1/2
f 11/1/1 10/1/1 12/1/1
f 54/1/2 50/1/2 56/1/2
f 45/1/1 43/1/1 46/1/1
f 19/1/1 22/1/1 20/1/1
f 13/1/1 11/1/1 14/1/1
f 48/1/1 49/1/1 47/1/1
f 53/1/1 49/1/1 48/1/1
f 52/1/2 48/1/2 55/1/2
f 57/1/2 44/1/2 41/1/2
f 59/1/1 51/1/1 8/1/1
f 64/1/2 25/1/2 29/1/2
f 60/1/2 30/1/2 5/1/2
f 65/1/2 73/1/2 72/1/2
f 67/1/1 70/1/1 69/1/1
f 102/1/1 101/1/1 100/1/1
f 114/1/1 120/1/1 115/1/1
f 100/1/2 97/1/2 99/1/2
f 104/1/1 100/1/1 103/1/1
f 97/1/2 100/1/2 98/1/2
f 66/1/2 95/1/2 94/1/2
f 96/1/2 98/1/2 95/1/2
f 106/1/1 103/1/1 105/1/1
f 68/1/1 84/1/1 70/1/1
f 107/1/2 110/1/2 108/1/2
f 91/1/1 81/1/1 93/1/1
f 90/1/2 87/1/2 89/1/2
f 92/1/1 78/1/1 81/1/1
f 74/1/2 76/1/2 73/1/2
f 88/1/2 85/1/2 87/1/2
f 84/1/1 68/1/1 71/1/1
f 86/1/2 84/1/2 85/1/2
f 78/1/1 92/1/1 80/1/1
f 75/1/2 78/1/2 76/1/2
f 118/1/1 116/1/1 120/1/1
f 109/1/2 112/1/2 110/1/2
f 83/1/2 82/1/2 84/1/2
f 77/1/2 79/1/2 78/1/2
f 112/1/2 109/1/2 111/1/2
f 112/1/2 113/1/2 117/1/2
f 116/1/1 118/1/1 119/1/1
f 105/1/1 108/1/1 121/1/1
f 72/1/2 115/1/2 123/1/2
f 93/1/1 89/1/1 128/1/1
f 69/1/1 94/1/1 124/1/1
f 6/1/3 70/1/3 84/1/3
f 44/1/4 108/1/4 105/1/4
f 21/1/5 85/1/5 84/1/5
f 4/1/6 68/1/6 67/1/6
f 51/1/7 115/1/8 120/1/8
f 58/1/9 122/1/9 121/1/9
f 22/1/10 86/1/10 88/1/10
f 51/1/11 115/1/11 72/1/11
f 44/1/12 108/1/12 110/1/12
f 38/1/13 102/1/13 104/1/13
f 62/1/14 126/1/14 123/1/14
f 15/1/15 79/1/15 80/1/15
f 37/1/16 101/1/16 102/1/16
f 25/1/9 89/1/9 93/1/9
f 16/1/17 80/1/17 92/1/17
f 43/1/4 107/1/4 121/1/4
f 35/1/18 99/1/18 97/1/18
f 63/1/4 127/1/4 128/1/4
f 37/1/19 101/1/19 99/1/19
f 30/1/11 94/1/11 69/1/11
f 12/1/20 76/1/20 78/1/20
f 29/1/21 93/1/21 81/1/21
f 61/1/14 125/1/14 124/1/14
f 11/1/22 75/1/22 74/1/22
f 40/1/23 104/1/23 106/1/23
f 27/1/4 91/1/4 127/1/4
f 39/1/24 103/1/24 100/1/24
f 56/1/25 120/1/25 116/1/25
f 54/1/26 118/1/26 114/1/26
f 25/1/27 89/1/27 87/1/27
f 33/1/28 97/1/28 96/1/28
f 34/1/29 98/1/29 100/1/29
f 46/1/30 110/1/30 112/1/30
f 26/1/9 90/1/9 128/1/9
f 45/1/31 109/1/31 107/1/31
f 32/1/32 96/1/32 66/1/32
f 18/1/33 82/1/33 83/1/33
f 17/1/34 81/1/34 78/1/34
f 31/1/35 95/1/35 98/1/35
f 19/1/36 83/1/36 86/1/36
f 28/1/37 92/1/37 91/1/37
f 13/1/38 77/1/38 75/1/38
f 2/1/11 66/1/11 124/1/11
f 3/1/14 67/1/14 125/1/14
f 15/1/39 79/1/39 77/1/39
f 9/1/40 73/1/40 76/1/40
f 10/1/41 74/1/41 65/1/41
f 30/1/42 94/1/42 95/1/42
f 5/1/43 69/1/43 70/1/43
f 49/1/44 113/1/44 111/1/44
f 47/1/45 111/1/45 109/1/45
f 23/1/46 87/1/46 85/1/46
f 42/1/9 106/1/9 122/1/9
f 1/1/14 65/1/14 126/1/14
f 24/1/47 88/1/47 90/1/47
f 53/1/48 117/1/48 113/1/48
f 41/1/49 105/1/49 103/1/49
f 8/1/50 72/1/51 73/1/51
f 55/1/52 119/1/52 117/1/52
f 18/1/53 82/1/53 71/1/53
f 55/1/54 119/1/54 118/1/54
f 7/1/55 71/1/55 68/1/55
f 50/1/11 114/1/11 123/1/11
f 52/1/56 116/1/56 112/1/56
