<?xml version="1.0" encoding="UTF-8"?>
<svg version="1.1" xmlns="http://www.w3.org/2000/svg" width="1000" height="1000">
<path d="M0 0 C1.0926693 -0.0146228 1.0926693 -0.0146228 2.20741272 -0.02954102 C18.57791134 -0.20352058 34.16385732 0.12576212 50.1171875 4.23828125 C50.86371582 4.4202002 51.61024414 4.60211914 52.37939453 4.78955078 C79.72358955 11.5485864 103.79623016 25.98684798 124.1171875 45.23828125 C125.07367187 46.1303125 126.03015625 47.02234375 127.015625 47.94140625 C132.4513399 53.11438614 137.34390567 58.5114467 141.8046875 64.55078125 C142.4088147 65.36506592 142.4088147 65.36506592 143.02514648 66.19580078 C151.00109657 77.34913611 157.47085209 89.49673072 163.56826782 101.74603271 C164.26763917 103.13987017 164.967527 104.53344859 165.66787755 105.92679429 C167.5662361 109.7072963 169.45725359 113.49142667 171.34693003 117.2762742 C173.39580674 121.3767208 175.45159532 125.4737008 177.50642395 129.57116699 C181.52132204 137.58000396 185.52968711 145.59209293 189.53548814 153.60548326 C192.79423529 160.12428981 196.05503845 166.64206387 199.31727219 173.15912628 C200.26013585 175.04275421 201.20299879 176.9263825 202.14586103 178.81001115 C202.61527617 179.74779791 203.08469132 180.68558467 203.56833117 181.65178922 C212.42722344 199.35071032 221.27816721 217.05359737 230.12678127 234.75765875 C238.20566531 250.92100144 246.29509777 267.07903821 254.38945146 283.23463866 C262.7199307 299.86179092 271.04291763 316.49267416 279.35803163 333.12751603 C284.01876297 342.45121613 288.68242926 351.77341943 293.3540535 361.09166718 C297.33071956 369.02389671 301.30029193 376.95962769 305.26099135 384.89984247 C307.2781278 388.94321733 309.29832333 392.9849782 311.32742882 397.02236176 C330.89598579 435.97185746 330.89598579 435.97185746 334.9921875 455.92578125 C335.19070313 456.82232422 335.38921875 457.71886719 335.59375 458.64257812 C337.29844314 466.51526568 338.26884089 474.20287755 338.3203125 482.26171875 C338.32737213 483.00092056 338.33443176 483.74012238 338.34170532 484.50172424 C338.56621529 514.89770206 338.56621529 514.89770206 335.1171875 528.23828125 C334.91851074 529.05184082 334.71983398 529.86540039 334.51513672 530.70361328 C327.34464492 559.65950936 313.60156122 584.61588677 293.1171875 606.23828125 C292.22515625 607.19476562 291.333125 608.15125 290.4140625 609.13671875 C285.24108261 614.57243365 279.84402205 619.46499942 273.8046875 623.92578125 C272.99040283 624.52990845 272.99040283 624.52990845 272.15966797 625.14624023 C261.00633264 633.12219032 248.85873803 639.59194584 236.60943604 645.68936157 C235.21559858 646.38873292 233.82202016 647.08862075 232.42867446 647.7889713 C228.64817245 649.68732985 224.86404208 651.57834734 221.07919455 653.46802378 C216.97874795 655.51690049 212.88176795 657.57268907 208.78430176 659.6275177 C200.77546479 663.64241579 192.76337582 667.65078086 184.74998549 671.65658189 C178.23117894 674.91532904 171.71340488 678.1761322 165.19634247 681.43836594 C163.31271454 682.3812296 161.42908625 683.32409254 159.5454576 684.26695478 C158.60767084 684.73636992 157.66988408 685.20578507 156.70367953 685.68942492 C139.00475843 694.54831719 121.30187138 703.39926096 103.59781 712.24787502 C87.43446731 720.32675906 71.27643054 728.41619152 55.12083009 736.51054521 C38.49367783 744.84102445 21.86279459 753.16401138 5.22795272 761.47912538 C-4.09574738 766.13985672 -13.41795068 770.80352301 -22.73619843 775.47514725 C-30.66842796 779.45181331 -38.60415894 783.42138568 -46.54437372 787.3820851 C-50.58774858 789.39922155 -54.62950945 791.41941708 -58.66689301 793.44852257 C-97.61638871 813.01707954 -97.61638871 813.01707954 -117.5703125 817.11328125 C-118.46685547 817.31179688 -119.36339844 817.5103125 -120.28710938 817.71484375 C-128.15979693 819.41953689 -135.8474088 820.38993464 -143.90625 820.44140625 C-144.64545181 820.44846588 -145.38465363 820.45552551 -146.14625549 820.46279907 C-176.54223331 820.68730904 -176.54223331 820.68730904 -189.8828125 817.23828125 C-190.69637207 817.03960449 -191.50993164 816.84092773 -192.34814453 816.63623047 C-221.30404061 809.46573867 -246.26041802 795.72265497 -267.8828125 775.23828125 C-268.83929688 774.34625 -269.79578125 773.45421875 -270.78125 772.53515625 C-276.2169649 767.36217636 -281.10953067 761.9651158 -285.5703125 755.92578125 C-285.97306396 755.3829248 -286.37581543 754.84006836 -286.79077148 754.28076172 C-294.76672157 743.12742639 -301.23647709 730.97983178 -307.33389282 718.73052979 C-308.03326417 717.33669233 -308.733152 715.94311391 -309.43350255 714.54976821 C-311.3318611 710.7692662 -313.22287859 706.98513583 -315.11255503 703.2002883 C-317.16143174 699.0998417 -319.21722032 695.0028617 -321.27204895 690.90539551 C-325.28694704 682.89655854 -329.29531211 674.88446957 -333.30111314 666.87107924 C-336.55986029 660.35227269 -339.82066345 653.83449863 -343.08289719 647.31743622 C-344.02576085 645.43380829 -344.96862379 643.55018 -345.91148603 641.66655135 C-346.38090117 640.72876459 -346.85031632 639.79097783 -347.33395617 638.82477328 C-356.19284844 621.12585218 -365.04379221 603.42296513 -373.89240627 585.71890375 C-381.97129031 569.55556106 -390.06072277 553.39752429 -398.15507646 537.24192384 C-406.4855557 520.61477158 -414.80854263 503.98388834 -423.12365663 487.34904647 C-427.78438797 478.02534637 -432.44805426 468.70314307 -437.1196785 459.38489532 C-441.09634456 451.45266579 -445.06591693 443.51693481 -449.02661635 435.57672003 C-451.0437528 431.53334517 -453.06394833 427.4915843 -455.09305382 423.45420074 C-474.66161079 384.50470504 -474.66161079 384.50470504 -478.7578125 364.55078125 C-478.95632813 363.65423828 -479.15484375 362.75769531 -479.359375 361.83398438 C-481.06406814 353.96129682 -482.03446589 346.27368495 -482.0859375 338.21484375 C-482.09299713 337.47564194 -482.10005676 336.73644012 -482.10733032 335.97483826 C-482.33184029 305.57886044 -482.33184029 305.57886044 -478.8828125 292.23828125 C-478.68413574 291.42472168 -478.48545898 290.61116211 -478.28076172 289.77294922 C-471.11026992 260.81705314 -457.36718622 235.86067573 -436.8828125 214.23828125 C-435.54476562 212.80355469 -435.54476562 212.80355469 -434.1796875 211.33984375 C-429.00670761 205.90412885 -423.60964705 201.01156308 -417.5703125 196.55078125 C-417.02745605 196.14802979 -416.48459961 195.74527832 -415.92529297 195.33032227 C-404.77195764 187.35437218 -392.62436303 180.88461666 -380.37506104 174.78720093 C-378.98122358 174.08782958 -377.58764516 173.38794175 -376.19429946 172.6875912 C-372.41379745 170.78923265 -368.62966708 168.89821516 -364.84481955 167.00853872 C-360.74437295 164.95966201 -356.64739295 162.90387343 -352.54992676 160.8490448 C-344.54108979 156.83414671 -336.52900082 152.82578164 -328.51561049 148.81998061 C-321.99680394 145.56123346 -315.47902988 142.3004303 -308.96196747 139.03819656 C-307.07833954 138.0953329 -305.19471125 137.15246996 -303.3110826 136.20960772 C-301.90440246 135.505485 -301.90440246 135.505485 -300.46930453 134.78713758 C-282.77038343 125.92824531 -265.06749638 117.07730154 -247.363435 108.22868748 C-231.20009231 100.14980344 -215.04205554 92.06037098 -198.88645509 83.96601729 C-182.25930283 75.63553805 -165.62841959 67.31255112 -148.99357772 58.99743712 C-139.66987762 54.33670578 -130.34767432 49.67303949 -121.02942657 45.00141525 C-113.09719704 41.02474919 -105.16146606 37.05517682 -97.22125128 33.0944774 C-93.17787642 31.07734095 -89.13611555 29.05714542 -85.09873199 27.02803993 C-46.14923629 7.45948296 -46.14923629 7.45948296 -26.1953125 3.36328125 C-25.29876953 3.16476563 -24.40222656 2.96625 -23.47851562 2.76171875 C-15.66184597 1.06915531 -8.00084734 0.08958595 0 0 Z M-34.42041016 127.5443573 C-36.02203475 128.33395758 -36.02203475 128.33395758 -37.6560154 129.13950938 C-41.07123626 130.82674045 -44.47687431 132.53240364 -47.8828125 134.23828125 C-50.11637793 135.34365367 -52.35065205 136.44759523 -54.58563232 137.55010414 C-61.17368381 140.80477448 -67.750229 144.08221872 -74.32455873 147.36447394 C-77.72379476 149.0610429 -81.12412205 150.75542257 -84.52426147 152.45018005 C-92.66954438 156.51074061 -100.81297796 160.57500193 -108.95602989 164.64003423 C-111.2609173 165.79061239 -113.56585266 166.94109444 -115.87080383 168.09154487 C-130.24565466 175.26637244 -144.61986803 182.44247548 -158.9921875 189.62237263 C-162.29589044 191.27275986 -165.59960007 192.92313372 -168.90332031 194.57348633 C-169.72419412 194.9835502 -170.54506792 195.39361408 -171.39081669 195.81610414 C-184.73970544 202.48419777 -198.09269586 209.14403536 -211.4473393 215.8005949 C-225.20981547 222.66061374 -238.96850293 229.52818289 -252.72354698 236.40309209 C-260.42669192 240.25296165 -268.13145497 244.09951166 -275.84051514 247.9375248 C-282.38966224 251.19808636 -288.93535706 254.46545188 -295.47667158 257.74170075 C-298.80904863 259.41047673 -302.14293678 261.07601979 -305.48130417 262.73278427 C-309.10599781 264.53175867 -312.72268849 266.3462779 -316.33886719 268.16230774 C-317.38506414 268.67846517 -318.4312611 269.19462261 -319.509161 269.72642118 C-325.90156026 272.95717615 -331.3767754 276.67061909 -336.8828125 281.23828125 C-338.04882672 282.13496364 -339.21537571 283.03095176 -340.3828125 283.92578125 C-354.26819438 296.10367998 -361.92589575 314.69628404 -363.12109375 332.859375 C-363.39672515 347.03263169 -360.29388799 358.80189375 -354.09391785 371.49443054 C-353.61289146 372.48917064 -353.13186507 373.48391075 -352.63626212 374.50879449 C-346.7790019 386.58286997 -340.79416379 398.59439961 -334.80280149 410.60232317 C-333.44770375 413.31901141 -332.09402971 416.03640805 -330.74034349 418.75379983 C-326.29832395 427.67067841 -321.85192131 436.58536751 -317.40415338 445.4993799 C-316.24508122 447.82234176 -315.08607414 450.14533608 -313.92707801 452.46833587 C-306.70100579 466.95140811 -299.47321163 481.43362028 -292.24151325 495.91388416 C-290.57789551 499.24506763 -288.91429991 502.57626214 -287.25073242 505.9074707 C-286.83737474 506.73519443 -286.42401706 507.56291816 -285.99813338 508.41572442 C-279.28103731 521.86697663 -272.57361177 535.32302766 -265.86998174 548.78099505 C-258.9628903 562.64698911 -252.0467159 576.50842289 -245.12179345 590.36552066 C-241.24343267 598.12689264 -237.36908928 605.89021296 -233.5050602 613.65873146 C-230.22110928 620.26098479 -226.92899241 626.85908379 -223.62623779 633.45195214 C-221.94417195 636.81027469 -220.26598075 640.17038366 -218.59834862 643.53590012 C-216.78653308 647.19212923 -214.95603186 650.83868809 -213.12373352 654.48469543 C-212.60591586 655.53712569 -212.0880982 656.58955594 -211.55458909 657.67387801 C-201.98911475 676.56463058 -186.93070902 690.1961232 -166.9140625 697.2734375 C-147.16751295 703.55874386 -127.97898687 700.40001467 -109.62101746 691.44265747 C-108.12754674 690.72086058 -108.12754674 690.72086058 -106.6039049 689.98448193 C-94.59827827 684.16365138 -82.65580214 678.21415007 -70.71717465 672.25747228 C-68.02324706 670.9137555 -65.32861138 669.57146184 -62.63398073 668.22915564 C-53.79114736 663.82415784 -44.95050256 659.41477872 -36.11053517 655.00403279 C-33.80634636 653.8543474 -31.50212519 652.70472687 -29.19789863 651.55511713 C-14.82842122 644.38584398 -0.45980511 637.21484642 13.90686321 630.0399456 C17.21190391 628.38939922 20.51695567 626.73887499 23.82202148 625.08837891 C25.0538483 624.47322177 25.0538483 624.47322177 26.3105605 623.84563722 C39.6505294 617.18417938 52.99529666 610.53239186 66.34198489 603.8844087 C80.0972532 597.03269465 93.84795026 590.17187605 107.59431583 583.30231774 C115.29203494 579.45578172 122.99169545 575.61325029 130.69656944 571.78106308 C137.24607297 568.5235073 143.79140222 565.25774696 150.33151605 561.98137771 C153.66173494 560.3133683 156.99372233 558.64920029 160.33114624 556.99564743 C163.96042233 555.19735964 167.57997969 553.38029157 171.19902039 551.56149292 C172.23784306 551.05047905 173.27666573 550.53946518 174.34696788 550.01296604 C194.4205263 539.84818239 208.82239961 524.66094948 216.1171875 503.23828125 C223.39199638 480.40904675 216.2646832 458.87154854 205.95782471 438.39816284 C205.34878522 437.17402359 204.74043722 435.9495401 204.13271022 434.72474873 C202.48106225 431.40109802 200.81966524 428.08240922 199.15642834 424.76454616 C197.35645378 421.1695691 195.56572081 417.56999129 193.77371216 413.97103882 C190.26969067 406.93760348 186.75700527 399.90853073 183.24094585 392.88110672 C180.38150876 387.16580979 177.52491965 381.44909812 174.67031097 375.73138809 C174.26283347 374.9152427 173.85535596 374.09909731 173.43553065 373.25822023 C172.60755207 371.5998394 171.77957533 369.94145765 170.9516004 368.28307499 C163.201195 352.7605533 155.44040563 337.24324102 147.67642984 321.72750355 C140.58467692 307.55433834 133.50609279 293.37464369 126.43368474 279.19181691 C119.15744521 264.6005344 111.8722777 250.01374185 104.57750964 235.43171322 C100.48785811 227.25622641 96.40170849 219.07903544 92.32492828 210.89712143 C88.85517675 203.93372957 85.37697187 196.97464001 81.88800481 190.02085482 C80.11072515 186.4780286 78.33724722 182.93343964 76.57430649 179.38345337 C74.95604427 176.12506195 73.32652371 172.87255191 71.68837556 169.62411489 C70.82735983 167.90979815 69.97798209 166.18965089 69.12922978 164.46922958 C58.91390806 144.31618847 44.65210755 130.2081597 23.3828125 122.24609375 C15.80010858 119.90597699 8.80496165 118.89629472 0.8671875 118.92578125 C-0.41091797 118.90161133 -0.41091797 118.90161133 -1.71484375 118.87695312 C-13.5493266 118.86813458 -23.9528933 122.24734416 -34.42041016 127.5443573 Z " fill="#FF6177" transform="translate(571.8828125,89.76171875)"/>
</svg>
